<?xml version="1.0"?>
<svg xmlns="http://www.w3.org/2000/svg" width="2048" height="2048">
  <defs>
    <path id="front-team-curve" d="M1964 4000q768-200 1536 0"/>
    <path id="front-number-curve" d="M1792 4070q985-100 1880 0"/>
    <path id="back-name-curve" d="M320 3300q560-200 1120 0"/>
    <path id="back-number-curve" d="M300 3415q500-100 1154 0"/>
    <filter id="biggerbwcopy">
      
    </filter>
  </defs>
  <path id="ZONE(base)" fill="#1A1819" d="M517.1 918c9.8 0 202.3 87 202.3 87s-37.3 110.9-45.3 162.4-16 103.8 31.9 145.5l47.9 41.7s11.5 164.1 7.1 213.8 21.3 456.1 21.3 456.1H17.6s25.7-406.4 24-450.7-2.7-217.4 1.8-226.3 55.9-24.8 66.5-70.1c10.6-45.3 20.4-95.8-1.8-170.4s-31.9-104.7-31.9-104.7l196-84.3h244.9zm590 30.2-194.3 79s13.4 33.2 25.2 78.8c11.8 45.7-4.7 114.9-25.6 150.1-23.8 40-64.9 38.6-69.3 47.5-4.4 8.9 16.6 225.8 18.3 270.2 1.8 44.4-24 450.7-24 450.7h764.8s-20.7-406.2-21.3-456.1c-1.8-139.3 25.7-262.6 25.7-262.6s-74.5-13.3-93.2-89.6 21.3-180.1 21.3-180.1-184.6-80.7-194.3-80.7l-233.3-7.2z"/>
  <path id="ZONE(side)" fill="#fff" d="M8.5 2036.9h111.9v-652.4C120.5 1316.8 5 1297 5 1297l3.5 739.9zm1607-737.3s-107.5 17.2-107.5 84.9v652.4h108l-.5-737.3zm-801.8-5.3S683 1316.8 683 1384.5v652.4h261.4v-652.4c.1-67.7-130.7-90.2-130.7-90.2z"/>
  <g id="ZONE(stars)" fill="#1d1d1b">
    <path d="m1572.9 1607.5 16.2 36.9 40.3-.1-30.1 26.9 12.7 38.2-34.9-20.3-32.5 23.7 8.6-39.3-32.7-23.5 40.1-4.1zm-4.7 193.6 12.7-38.2 15.8 37.1 40.3.4-30.4 26.4 12.1 38.4-34.5-20.7-32.7 23.3 9-39.2-32.4-24zm34.3-244.4-33-23.2-34.3 21.1 11.7-38.5-30.6-26.2 40.2-.8 15.5-37.1 13.2 38.1 40 3.1-32.1 24.3zm-1577 253.5 15.4-37.2 13.2 38 40.1 3.1-32.1 24.3 9.5 39.2-33.1-23.1-34.3 21.1 11.7-38.5-30.6-26.1zM50 1632.5l11.6 36.2 37.9 3.8-30.8 22.3 8 37.2-30.7-22.5-32.9 19.2 11.9-36.2-28.4-25.3 38.1.1zm35.2-46.9-32.9-20.2-31.9 22.1 9.2-37.6-30.9-23.5 38.7-3 12.6-36.5 14.8 35.8 38.7.8-29.5 25.1zm667.1 48.9 15.2 37.3 40.3 1-30.8 26 11.6 38.6-34.3-21.3-33.1 22.9 9.6-39.1-32-24.4 40.2-3zm-3.7 193.2 13.7-37.8 14.8 37.5 40.3 1.4-31.1 25.6 11.1 38.7-34-21.6-33.3 22.5 10-39-31.7-24.8zm31.6-243.3-32.4-23.9-34.8 20.2 12.6-38.2-29.9-26.9 40.2.2 16.4-36.8 12.2 38.4 40 4.1-32.7 23.5z"/>
    <path d="m849.5 1817.2 15.4-37.2 13.2 38 40.1 3.1-32.1 24.3 9.5 39.2-33.1-23.1-34.3 21.1 11.7-38.5-30.6-26.1zm25.6-204.7 12.3 38.3 40.1 4-32.6 23.6 8.5 39.4-32.5-23.8-34.8 20.3 12.6-38.3-30.1-26.8 40.3.1zm35.6-62.9-34.3-21.1-33.1 23 9.5-39.1-32.1-24.4 40.2-3.1 13.2-38 15.4 37.2 40.2.9-30.7 26.1z"/>
  </g>
  <path id="ZONE(inner-placket)" fill="#fff" d="M1828.1 1651.7h42.2v182.7h-42.2z"/>
  <path id="ZONE(outer-placket)" fill="#1d1d1b" d="M1913.2 1834.4h-.2l.2 13.6-96.6-1v-70.4l54.4.3v-125.2h42.2z"/>
  <path id="ZONE(collar)" fill="#1d1d1b" d="M1626.3 1322.6h95.9v690.7h-95.9zm108.3-7h70.4v710.1h-70.4z"/>
  <path id="ZONE(collar-trim)" fill="#fff" d="M1709.7 1296.3h17.8v735.6h-17.8z"/>
  <path id="ZONE(sleeves)" fill="#1d1d1b" d="M75.2 564.3s48.3-18 57.3-28.6c30.1-35.8 85.4-89.1 108.4-101.4 28.9-15.5 72-33.3 192-28.6s197.4 120.8 203.6 126.2 63.5 33.3 63.5 33.3-18.6 52.6-23.2 79.7c-4.6 27.1-.8 79.7-.8 79.7H98.4c3.9-75.2-23.2-160.3-23.2-160.3zm833.5 160.2h577.5s-3.9-52.6.8-79.7c4.6-27.1 23.2-79.7 23.2-79.7s-57.3-27.9-63.5-33.3c-6.2-5.4-83.6-121.5-203.6-126.2-120-4.6-163 13.1-192 28.6-23 12.3-78.3 65.6-108.4 101.4-9 10.7-57.3 28.6-57.3 28.6s27.2 85.2 23.3 160.3z"/>
  <path id="ZONE(sleeve-trim)" fill="#fff" d="M48.4 696.7h1461.8V734H48.4z"/>
  <g id="ZONE(sportility-link)" fill="#fff">
    <path d="M1114.3 1208c-4.8-4.8-12.5-4.8-17.2 0l-9.8 9.8a6.85 6.85 0 0 0-.2 9.8c2.7 2.8 7.1 2.9 9.8.2l.2-.2 9.8-9.8c.7-.7.7-1.8 0-2.4-.7-.7-1.8-.7-2.4 0l-9.8 9.8c-1.4 1.4-3.6 1.3-4.9-.1s-1.3-3.5 0-4.9l9.8-9.8a8.7 8.7 0 0 1 12.3.1c3.3 3.4 3.3 8.9 0 12.3l-6 6c6.7-.1 12.1-5.6 12.1-12.3-.1-3.2-1.4-6.3-3.7-8.5"/>
    <path d="M1110.6 1221.5c2.6-2.8 2.5-7.2-.3-9.8a6.88 6.88 0 0 0-9.6 0l-9.8 9.8c-.7.7-.7 1.8 0 2.4.7.7 1.8.7 2.4 0l9.8-9.8c1.4-1.4 3.6-1.4 4.9 0 1.4 1.4 1.4 3.6 0 4.9l-9.8 9.8a8.7 8.7 0 0 1-12.3-.1 8.88 8.88 0 0 1 0-12.3l6-6c-6.7.1-12.1 5.6-12.1 12.3s5.6 12.1 12.3 12.1c3.2-.1 6.3-1.3 8.5-3.6l10-9.7z"/>
  </g>
  <path fill="#fff" d="M1927.3 1658.4c6.4 0 11.7-5.2 11.7-11.7s-5.3-11.7-11.7-11.7-11.7 5.2-11.7 11.7c0 6.4 5.2 11.7 11.7 11.7zm.8-13.6c.4 0 .8.4.8.8s-.4.8-.8.8c-.5 0-.8-.4-.8-.8s.4-.8.8-.8zm0 2.5c.4 0 .8.4.8.8s-.4.8-.8.8c-.5 0-.8-.4-.8-.8s.4-.8.8-.8zm-2.4 1.6c-.4 0-.8-.3-.8-.8 0-.4.4-.8.8-.8s.8.4.8.8-.4.8-.8.8zm0-4.1c.4 0 .8.4.8.8s-.4.8-.8.8-.8-.4-.8-.8.4-.8.8-.8zm1.6 118.4c-6.5 0-11.7 5.3-11.7 11.7s5.3 11.7 11.7 11.7c6.5 0 11.7-5.3 11.7-11.7s-5.3-11.7-11.7-11.7zm-1.5 13.6c-.4 0-.8-.4-.8-.8s.4-.8.8-.8c.5 0 .8.4.8.8s-.4.8-.8.8zm0-2.5c-.4 0-.8-.4-.8-.8s.4-.8.8-.8c.5 0 .8.4.8.8s-.4.8-.8.8zm2.4 2.5c-.4 0-.8-.4-.8-.8s.4-.8.8-.8.8.4.8.8-.4.8-.8.8zm0-2.5c-.4 0-.8-.4-.8-.8s.4-.8.8-.8.8.4.8.8-.4.8-.8.8zm-.9-54.7c-6.5 0-11.7 5.3-11.7 11.7 0 6.5 5.3 11.7 11.7 11.7 6.5 0 11.7-5.3 11.7-11.7 0-6.5-5.3-11.7-11.7-11.7zm-1.5 14.2c-.4 0-.8-.4-.8-.8s.4-.8.8-.8c.5 0 .8.4.8.8s-.4.8-.8.8zm0-2.5c-.4 0-.8-.4-.8-.8s.4-.8.8-.8c.5 0 .8.4.8.8s-.4.8-.8.8zm2.4 2.5c-.4 0-.8-.4-.8-.8s.4-.8.8-.8.8.4.8.8-.4.8-.8.8zm0-2.5c-.4 0-.8-.4-.8-.8s.4-.8.8-.8.8.4.8.8-.4.8-.8.8zm-.9-56c-6.5 0-11.7 5.3-11.7 11.7 0 6.5 5.3 11.7 11.7 11.7 6.5 0 11.7-5.3 11.7-11.7 0-6.5-5.3-11.7-11.7-11.7zm-1.5 14c-.4 0-.8-.4-.8-.8s.4-.8.8-.8c.5 0 .8.4.8.8s-.4.8-.8.8zm0-2.5c-.4 0-.8-.4-.8-.8s.4-.8.8-.8c.5 0 .8.4.8.8s-.4.8-.8.8zm2.4 2.5c-.4 0-.8-.4-.8-.8s.4-.8.8-.8.8.4.8.8-.4.8-.8.8zm0-2.5c-.4 0-.8-.4-.8-.8s.4-.8.8-.8.8.4.8.8-.4.8-.8.8z"/>
  <g stroke-linejoin="round" font-weight="400" paint-order="stroke" text-anchor="middle">
    <text x="1226" y="1480" fill="#009db3" stroke="#1a1819" stroke-width="8" dominant-baseline="baseline" font-family="Advent Pro" font-size="60" style="font-display:block">MY TEAM</text>
    <text x="1226" y="1506" fill="#1a1819" stroke="#fff" stroke-width="10" dominant-baseline="hanging" font-family="Kumar One" font-size="160">23</text>
    <text id="TEXT(back-name)" x="400" y="1124" fill="#009db3" stroke="#1a1819" stroke-width="8" dominant-baseline="baseline" font-family="Advent Pro" font-size="66">PLAYER</text>
    <text id="TEXT(back-number)" x="400" y="1170" fill="#1a1819" stroke="#fff" stroke-width="10" dominant-baseline="hanging" font-family="Kumar One" font-size="170">29</text>
  </g>
</svg>
